<svg width="24" height="24" viewBox="0 0 24 24" fill="none" xmlns="http://www.w3.org/2000/svg">
<path d="M0 12C0 5.37256 5.37256 0 12 0C18.6274 0 24 5.37256 24 12C24 18.6274 18.6274 24 12 24C5.37569 23.9925 0.00748369 18.6243 0 12Z" fill="white"/>
<path d="M5.11282 14.1912C4.21825 13.2551 4.21825 11.7809 5.11282 10.8448C6.03635 9.92067 7.53416 9.92023 8.45823 10.8438C8.45857 10.8441 8.45891 10.8444 8.45925 10.8448L9.39838 11.7839V5.73905C9.39838 4.29832 10.5663 3.13037 12.0071 3.13037C13.4478 3.13037 14.6158 4.29832 14.6158 5.73905V11.7839L15.5549 10.8448C16.5417 9.98773 18.0365 10.0929 18.8936 11.0798C19.6692 11.9729 19.6664 13.3015 18.8868 14.1912L13.1028 19.9752C12.4915 20.5863 11.5008 20.5863 10.8895 19.9752L5.11282 14.1912Z" fill="#2790CB"/>
</svg>
