<svg width="100" height="100" viewBox="0 0 100 100" fill="none" xmlns="http://www.w3.org/2000/svg">
<g clip-path="url(#clip0)">
<path d="M8.02407 66.2989C3.59258 66.2989 0 62.7063 0 58.2748V8.02407C0 3.59258 3.59258 0 8.02407 0H91.9759C96.4074 0 100 3.59258 100 8.02407V58.2748C100 62.7063 96.4074 66.2989 91.9759 66.2989H8.02407Z" fill="#50758D"/>
<path d="M12.0361 66.2989H8.02407C3.59278 66.2989 0 62.7061 0 58.2748V8.02407C0 3.59278 3.59278 0 8.02407 0H12.0361C7.60481 0 4.01204 3.59278 4.01204 8.02407V58.2748C4.01204 62.7061 7.60481 66.2989 12.0361 66.2989Z" fill="#2B597F"/>
<path d="M22.4175 55.1833H13.3904C11.7286 55.1833 10.3813 53.8361 10.3813 52.1743C10.3813 50.5125 11.7286 49.1653 13.3904 49.1653H22.4175C24.0792 49.1653 25.4265 50.5125 25.4265 52.1743C25.4265 53.8361 24.0792 55.1833 22.4175 55.1833Z" fill="#F5F5F5"/>
<path d="M44.4836 55.1833H35.4565C33.7948 55.1833 32.4475 53.8361 32.4475 52.1743C32.4475 50.5125 33.7948 49.1653 35.4565 49.1653H44.4836C46.1454 49.1653 47.4926 50.5125 47.4926 52.1743C47.4926 53.8361 46.1454 55.1833 44.4836 55.1833Z" fill="#F5F5F5"/>
<path d="M66.5495 55.1833H57.5225C55.8607 55.1833 54.5134 53.8361 54.5134 52.1743C54.5134 50.5125 55.8607 49.1653 57.5225 49.1653H66.5495C68.2113 49.1653 69.5586 50.5125 69.5586 52.1743C69.5586 53.8361 68.2113 55.1833 66.5495 55.1833Z" fill="#F5F5F5"/>
<path d="M79.5889 55.1833C77.9271 55.1833 76.5798 53.8361 76.5798 52.1743C76.5798 50.5125 77.9271 49.1653 79.5889 49.1653H88.6159C90.2777 49.1653 91.625 50.5125 91.625 52.1743C91.625 53.8361 90.2777 55.1833 88.6159 55.1833H79.5889Z" fill="#F5F5F5"/>
<path d="M28.619 12.7839C31.1213 12.7839 33.1496 14.8124 33.1496 17.3145V23.6521C33.1496 26.1545 31.1211 28.1827 28.619 28.1827H15.2535C12.7512 28.1827 10.7229 26.1543 10.7229 23.6521V17.3145C10.7229 14.8122 12.7514 12.7839 15.2535 12.7839H28.619Z" fill="#FAD207"/>
<path d="M19.2658 28.1826H15.2538C12.7503 28.1826 10.7222 26.1545 10.7222 23.653V17.314C10.7222 14.8125 12.7503 12.7844 15.2538 12.7844H19.2658C16.7623 12.7844 14.7342 14.8125 14.7342 17.314V23.653C14.7342 26.1545 16.7623 28.1826 19.2658 28.1826Z" fill="#FAA515"/>
<path d="M91.3079 19.2076C91.011 19.5265 90.6098 19.687 90.2066 19.687C89.8395 19.687 89.4724 19.5526 89.1815 19.2838C88.1524 18.3249 87.0732 17.4523 85.9719 16.688C81.9197 13.8796 77.5586 12.4553 73.009 12.4553C69.9458 12.4553 66.9628 13.1033 64.1042 14.3851C64.1022 14.3851 64.1002 14.3871 64.0982 14.3871C63.9257 14.4654 63.7532 14.5456 63.5807 14.6278C63.4282 14.7001 63.2778 14.7743 63.1273 14.8505C62.9789 14.9247 62.8304 15.001 62.684 15.0792C62.3249 15.2678 61.9698 15.4684 61.6148 15.679C61.4764 15.7612 61.34 15.8435 61.2035 15.9297C61.0511 16.024 60.8986 16.1203 60.7482 16.2186C60.7381 16.2226 60.7281 16.2306 60.7181 16.2367C60.5636 16.337 60.4092 16.4393 60.2567 16.5436C59.1694 17.2838 58.1063 18.1243 57.1012 19.0391C56.4854 19.5967 55.5345 19.5526 54.9749 18.9388C54.4172 18.3229 54.4613 17.3721 55.0772 16.8124C56.1865 15.8034 57.36 14.8766 58.5636 14.0561C60.0039 13.0772 61.4824 12.2547 62.9909 11.5847C66.1985 10.1644 69.5526 9.44629 73.009 9.44629C78.1103 9.44629 83.1855 11.0952 87.687 14.2166C88.9067 15.0611 90.0982 16.026 91.2316 17.0812C91.8395 17.6469 91.8736 18.5998 91.3079 19.2076Z" fill="#2EDFFC"/>
<path d="M85.5585 23.5927C85.2064 23.5927 84.853 23.47 84.5675 23.2198C83.9148 22.6475 83.2335 22.1145 82.5428 21.6355C79.5188 19.5374 76.3113 18.4736 73.0094 18.4736C69.7685 18.4736 66.6157 19.4997 63.6385 21.5233C62.9854 21.9675 62.3358 22.4637 61.7085 22.9986C61.0764 23.5376 60.1266 23.4621 59.5876 22.8294C59.0486 22.1971 59.1242 21.2475 59.7567 20.7085C60.4668 20.1033 61.2034 19.5402 61.9469 19.0347C65.4323 16.6656 69.1543 15.4644 73.0094 15.4644C76.936 15.4644 80.7206 16.7087 84.2582 19.163C85.0417 19.7067 85.8131 20.3103 86.5509 20.9566C87.1757 21.5043 87.2383 22.4549 86.6907 23.0798C86.3932 23.419 85.9769 23.5927 85.5585 23.5927Z" fill="#2EDFFC"/>
<path d="M80.88 27.5245C80.5543 27.5245 80.2263 27.4194 79.9505 27.2024C79.6538 26.9687 79.3797 26.7653 79.1133 26.5805C77.0871 25.1747 75.0907 24.4914 73.0094 24.4914C70.9705 24.4914 69.0114 25.1486 67.0199 26.5007C66.7689 26.672 66.5412 26.8361 66.3266 27.0014C65.6682 27.5085 64.7236 27.3859 64.2165 26.7276C63.7095 26.0694 63.8319 25.1247 64.4903 24.6176C64.7515 24.4162 65.0253 24.2184 65.3272 24.0126C67.8359 22.3095 70.3481 21.4824 73.009 21.4824C75.724 21.4824 78.2814 22.3412 80.8275 24.1079C81.144 24.3274 81.466 24.5661 81.811 24.8379C82.464 25.352 82.5765 26.2977 82.0628 26.9506C81.7663 27.3278 81.3254 27.5245 80.88 27.5245Z" fill="#2EDFFC"/>
<path d="M76.1257 31.5207C75.8533 31.5207 75.5774 31.4467 75.3295 31.2917C74.221 30.5984 73.5074 30.5095 73.0099 30.5095C72.5572 30.5095 71.9114 30.5819 70.9305 31.1472C70.2105 31.5615 69.2908 31.3145 68.8759 30.5946C68.4611 29.8744 68.7086 28.9546 69.4286 28.5398C71.0456 27.6082 72.247 27.5005 73.0101 27.5005C73.8396 27.5005 75.1479 27.6291 76.9253 28.7404C77.6298 29.1809 77.8438 30.1093 77.4031 30.8138C77.1172 31.2702 76.627 31.5207 76.1257 31.5207Z" fill="#2EDFFC"/>
<path d="M67.2336 19.5971C67.2717 19.581 67.3098 19.567 67.3479 19.5529C66.0861 20.0444 64.8484 20.7004 63.6388 21.5228C62.9848 21.9682 62.3349 22.4637 61.709 22.9993C61.0771 23.5369 60.1262 23.4627 59.5866 22.8288C59.049 22.1969 59.1232 21.248 59.7571 20.7084C60.4673 20.1026 61.2035 19.5409 61.9457 19.0354C63.3018 18.1146 64.6919 17.3684 66.1142 16.8047C65.3479 17.1136 64.9748 17.9842 65.2797 18.7545C65.5866 19.5269 66.4612 19.904 67.2336 19.5971Z" fill="#27BDF3"/>
<path d="M69.375 22.0288C69.3505 22.0362 69.3265 22.0451 69.302 22.0525C69.3134 22.0487 69.3245 22.0437 69.3361 22.04C69.3491 22.036 69.3622 22.0326 69.375 22.0288Z" fill="#2EDFFC"/>
<path d="M70.2246 24.9147C70.2707 24.9006 70.3169 24.8866 70.363 24.8746C69.2457 25.2015 68.1383 25.7432 67.019 26.5014C66.7682 26.6719 66.5416 26.8364 66.3269 27.0009C65.6689 27.5085 64.7241 27.3861 64.2166 26.7281C63.7091 26.0701 63.8314 25.1253 64.4914 24.6178C64.7522 24.4152 65.025 24.2186 65.3279 24.012C66.6445 23.1181 67.9622 22.4701 69.3018 22.0525C68.5293 22.3109 68.0998 23.1391 68.343 23.9217C68.5877 24.7141 69.4302 25.1594 70.2246 24.9147Z" fill="#27BDF3"/>
<path d="M73.0089 30.5095C72.5556 30.5095 71.9116 30.5817 70.9307 31.1474C70.2105 31.5607 69.2898 31.3139 68.8745 30.5938C68.4613 29.8736 68.708 28.9549 69.4282 28.5396C71.045 27.6088 72.2466 27.5005 73.0089 27.5005C72.1784 27.5005 71.5044 28.1745 71.5044 29.005C71.5044 29.8355 72.1784 30.5095 73.0089 30.5095Z" fill="#27BDF3"/>
<path d="M64.0982 14.3871C62.7584 14.9901 61.4732 15.7155 60.2567 16.5436C59.1694 17.2838 58.1063 18.1243 57.1012 19.0391C56.4854 19.5968 55.5345 19.5526 54.9749 18.9388C54.4172 18.3229 54.4613 17.3721 55.0772 16.8124C56.1865 15.8034 57.36 14.8766 58.5636 14.0561C60.004 13.0772 61.4824 12.2547 62.9909 11.5847C62.9929 11.5867 62.9949 11.5887 62.9949 11.5887C62.2346 11.9257 61.8916 12.8124 62.2266 13.5727C62.5456 14.2948 63.364 14.6439 64.0982 14.3871Z" fill="#27BDF3"/>
</g>
<defs>
<clipPath id="clip0">
<rect width="100" height="100" fill="white"/>
</clipPath>
</defs>
</svg>
