<svg width="70" height="70" viewBox="0 0 70 70" fill="none" xmlns="http://www.w3.org/2000/svg">
<g clip-path="url(#clip0)">
<path d="M62.3181 69.9534H7.68085C6.24957 69.9534 5.0896 68.7934 5.0896 67.3622V25.5823H64.9099V67.3622C64.9099 68.7934 63.7494 69.9534 62.3181 69.9534Z" fill="#FFC022"/>
<path d="M70 16.5191V27.2899C70 28.4403 69.0665 29.3722 67.9161 29.3722H2.08229C0.93193 29.3722 0 28.4403 0 27.2899V16.5191C0 15.3687 0.93193 14.4368 2.08229 14.4368H67.9161C69.0665 14.4368 70 15.3687 70 16.5191Z" fill="#FFA21A"/>
<path d="M53.8027 29.372H39.6048C39.2197 28.682 38.8197 28 38.4069 27.325C37.0648 25.13 35.5785 23.0152 33.9582 20.9969C33.5213 20.4543 33.0754 19.9176 32.6204 19.3884C32.8078 19.2282 32.9937 19.0674 33.1811 18.9072C34.7117 17.5886 36.2413 16.2705 37.7703 14.9552C37.9711 14.7827 38.1719 14.6086 38.3727 14.4366C39.6683 13.3204 40.9645 12.2053 42.259 11.0891C42.6115 11.4982 42.9592 11.911 43.301 12.3276C43.873 13.0213 44.4305 13.7247 44.9731 14.4366C47.2514 17.4177 49.2904 20.5612 51.0785 23.8371C52.0638 25.6427 52.9733 27.49 53.8027 29.372Z" fill="#EFB025"/>
<path d="M34.9988 19.3896C34.5438 19.9183 34.0979 20.4551 33.6626 20.9977C32.0412 23.0159 30.556 25.1308 29.2139 27.3263C24.9532 34.2909 22.1232 42.0711 20.9296 50.2144C19.1357 47.8351 17.4801 45.261 15.9906 42.5084C13.3705 44.2174 10.8097 46.1721 8.34399 48.3713C9.61024 39.7335 12.4002 31.431 16.5439 23.8378C18.757 19.78 21.3579 15.9247 24.3198 12.3294C24.6616 11.9118 25.0093 11.5005 25.3617 11.0898C26.8582 12.3785 28.3535 13.6672 29.8505 14.9559C31.3795 16.2729 32.909 17.5893 34.4386 18.9079C34.6255 19.0671 34.8114 19.2289 34.9988 19.3896Z" fill="#EF5C3F"/>
<path d="M61.6547 48.3713C59.1889 46.1721 56.6281 44.2174 54.008 42.5084C52.5185 45.261 50.863 47.8351 49.0691 50.2144C47.8754 42.0711 45.046 34.2909 40.7848 27.3263C39.4427 25.1308 37.9564 23.0159 36.3361 20.9977C35.8992 20.4551 35.4533 19.9183 34.9988 19.3896C35.1857 19.2289 35.3716 19.0681 35.559 18.9079C37.0896 17.5893 38.6192 16.2713 40.1487 14.9559C41.6451 13.6656 43.1421 12.3785 44.6369 11.0898C44.9894 11.4989 45.3371 11.9118 45.6789 12.3283C48.6413 15.9236 51.2421 19.779 53.4563 23.8378C57.599 31.431 60.3884 39.7335 61.6547 48.3713Z" fill="#EF5C3F"/>
<path d="M29.4263 19.3894H40.5726V29.372H29.4263V19.3894Z" fill="#EF5C3F"/>
<path d="M53.4563 23.8378L40.7848 27.3263C39.4427 25.1308 37.9564 23.0159 36.3361 20.9977L35.559 18.908L34.9988 17.4008L40.1487 14.9559L45.6789 12.3284C48.6413 15.9236 51.2421 19.779 53.4563 23.8378Z" fill="#D35133"/>
<path d="M34.9991 17.4008L34.4389 18.9079L33.6629 20.9976C32.0415 23.0158 30.5563 25.1307 29.2142 27.3262L16.5442 23.8378C18.7573 19.78 21.3582 15.9246 24.3201 12.3293L29.8508 14.9558L34.9991 17.4008Z" fill="#D35133"/>
<path d="M55.2227 0.484282L34.9995 10.0882L38.8842 20.536L60.4698 14.5946C63.2928 13.8176 64.8437 10.7879 63.8231 8.04333L62.0415 3.25284C61.0215 0.508314 57.8679 -0.771822 55.2227 0.484282Z" fill="#EF5C3F"/>
<path d="M14.7765 0.484282L34.9997 10.0882L31.115 20.536L9.52996 14.5946C6.70693 13.8176 5.15603 10.7879 6.17661 8.04333L7.95769 3.25284C8.97828 0.508314 12.1314 -0.771822 14.7765 0.484282Z" fill="#EF5C3F"/>
<path d="M38.1709 6.49744H31.8285C30.0928 6.49744 28.6855 7.90468 28.6855 9.6409V18.855C28.6855 20.5912 30.0928 21.9985 31.8285 21.9985H38.1709C39.9066 21.9985 41.3139 20.5912 41.3139 18.855V9.6409C41.3139 7.90468 39.9066 6.49744 38.1709 6.49744Z" fill="#D35133"/>
<path d="M29.4265 29.3721H40.5728V69.9535H29.4265V29.3721Z" fill="#EF5C3F"/>
</g>
<defs>
<clipPath id="clip0">
<rect width="70" height="70" fill="white"/>
</clipPath>
</defs>
</svg>
