<svg width="15" height="13" viewBox="0 0 15 13" fill="none" xmlns="http://www.w3.org/2000/svg">
<path d="M9.5886 0.580252C8.77706 -0.193417 7.49913 -0.193417 6.68759 0.580252C5.88648 1.37896 5.8861 2.67435 6.6867 3.47353C6.687 3.47382 6.68729 3.47412 6.68759 3.47442L7.50172 4.28662H2.26145C1.01249 4.28662 0 5.29672 0 6.54278C0 7.7888 1.01249 8.7989 2.26145 8.7989H7.50172L6.68759 9.6111C5.94461 10.4646 6.03582 11.7573 6.89129 12.4985C7.66552 13.1694 8.81734 13.1669 9.5886 12.4927L14.6027 7.49036C15.1324 6.96174 15.1324 6.10487 14.6027 5.57625L9.5886 0.580252Z" fill="#036095"/>
</svg>
