<svg width="30" height="30" viewBox="0 0 30 30" fill="none" xmlns="http://www.w3.org/2000/svg">
<path d="M15 0C23.2843 0 30 6.71569 30 15C30 23.2842 23.2843 29.9999 15 29.9999C6.71576 29.9999 6.67572e-05 23.2842 6.67572e-05 15C0.00936127 6.71961 6.71961 0.00935461 15 0Z" fill="#6DB26D"/>
<path d="M12.9803 8.16952C13.9271 7.27683 15.418 7.27683 16.3648 8.16952C17.2994 9.09111 17.2999 10.5858 16.3658 11.5079C16.3655 11.5083 16.3652 11.5086 16.3648 11.5089L15.415 12.4461H21.5286C22.9858 12.4461 24.167 13.6116 24.167 15.0494C24.167 16.4871 22.9858 17.6526 21.5286 17.6526H15.415L16.3648 18.5897C17.2316 19.5745 17.1252 21.0661 16.1272 21.9214C15.2239 22.6954 13.8801 22.6926 12.9803 21.9146L7.13047 16.1427C6.5125 15.5328 6.5125 14.5441 7.13047 13.9341L12.9803 8.16952Z" fill="white"/>
</svg>
