<svg width="142" height="177" viewBox="0 0 142 177" fill="none" xmlns="http://www.w3.org/2000/svg">
<g clip-path="url(#clip0)">
<path d="M84.5383 129.92L77.8374 134.402L78.4604 135.008L84.2268 131.979L82.8232 136.462H84.071L85.7843 132.464L89.3683 135.977L90.3028 135.614L86.2515 130.162L84.5383 129.92Z" fill="#EF5C3F"/>
<path d="M60.8517 129.454L59.6057 129.765L51.8145 132.256L52.2817 133.192L58.9827 131.789L56.1773 135.527H57.5791L59.9172 132.256L62.411 135.527L63.0341 135.215L60.8517 129.454Z" fill="#EF5C3F"/>
<path d="M83.1367 111.333L85.0057 132.516L86.4075 132.671V110.554L83.1367 111.333Z" fill="#EF5C3F"/>
<path d="M57.8916 111.644L59.7607 131.426L61.0067 131.582L60.6952 111.177L57.8916 111.644Z" fill="#EF5C3F"/>
<path d="M44.3346 62.0103C42.1523 62.3216 36.5434 63.567 31.8691 65.437C27.1948 67.307 21.7398 71.9791 21.7398 71.9791L24.2337 72.7575L18 77.8967L23.9222 78.6751L20.0266 82.4132L25.6373 82.8802L21.8974 86.774C21.8974 86.774 26.7275 88.4883 34.0514 87.5524C41.3753 86.6183 48.6993 83.3473 48.6993 83.3473L44.3346 62.0103Z" fill="#D6CFC1"/>
<path d="M49.4757 101.884C43.2035 98.1003 38.4119 85.0619 37.7889 75.4062C37.1659 65.7487 38.5677 52.1992 38.2562 46.9025C37.9447 41.6058 31.088 29.1461 33.8934 21.9813C36.6987 14.8165 48.5412 12.0124 55.8651 16.9978C69.4941 26.2725 70.8243 40.2047 73.6297 48.3055C73.6297 48.3055 92.6403 50.1754 101.835 53.289C108.323 55.4868 114.925 57.9611 114.925 57.9611L111.964 60.6095L116.794 62.9465C116.794 62.9465 111.964 68.0857 112.587 67.93C113.21 67.7743 117.886 65.9044 117.729 66.3732C117.573 66.8402 113.677 74.1608 113.677 74.1608C113.677 74.1608 118.04 72.2908 117.729 72.7597C117.417 73.2267 108.067 100.796 92.796 103.756C77.5252 106.716 57.7341 106.868 49.4757 101.884Z" fill="#EDE6D9"/>
<path d="M55.8651 16.997C48.5412 12.0135 36.6987 14.8157 33.8934 21.9805C31.088 29.1453 37.9447 41.605 38.2562 46.9017C38.3405 48.3193 38.3002 50.3284 38.2104 52.6947L41.5288 51.4182L44.6456 54.0665L48.2297 48.3028L53.6827 52.3522L55.8651 47.6801L60.2279 50.7955L63.189 46.279L68.1748 49.3944C68.1748 49.3944 69.1093 44.8779 69.4208 45.3449C69.5967 45.6087 71.3997 45.92 72.9444 46.1434C70.5147 37.8944 68.3489 25.4915 55.8651 16.997Z" fill="#D6CFC1"/>
<path d="M42.0899 34.4884C42.0899 34.4884 42.777 32.5727 40.9062 30.3914C39.1013 28.2851 36.6808 29.4793 36.6808 29.4793C36.6808 29.4793 32.4151 37.5818 33.2837 38.417C34.154 39.2558 42.0899 34.4884 42.0899 34.4884Z" fill="#E8B618"/>
<path d="M50.2551 28.0285C51.0141 28.0285 51.6294 27.4135 51.6294 26.6549C51.6294 25.8962 51.0141 25.2812 50.2551 25.2812C49.4961 25.2812 48.8809 25.8962 48.8809 26.6549C48.8809 27.4135 49.4961 28.0285 50.2551 28.0285Z" fill="#564336"/>
<path d="M35.5794 27.2779C35.5794 28.0362 34.9638 28.6516 34.2052 28.6516C33.4467 28.6516 32.8311 28.0362 32.8311 27.2779C32.8311 26.5197 33.4467 25.9043 34.2052 25.9043C34.9656 25.9025 35.5794 26.5179 35.5794 27.2779Z" fill="#564336"/>
<path d="M36.0762 19.8015C36.0762 19.8015 33.2709 14.0378 34.986 11.5469C36.6992 9.05424 39.193 10.6129 39.193 10.6129C39.193 10.6129 41.0638 7.34178 44.3346 7.03042C47.6072 6.71906 48.5417 8.90041 48.5417 8.90041C48.5417 8.90041 49.1647 7.49929 51.8143 8.43336C54.4638 9.36743 54.6196 11.8601 54.6196 11.8601L55.0868 16.5323C55.0868 16.5323 50.5683 14.8198 44.8019 15.7539C39.0354 16.6861 36.0762 19.8015 36.0762 19.8015Z" fill="#EF5C3F"/>
<path d="M81.3388 59.1181C74.3154 62.6053 70.2201 72.1126 80.5326 80.9588C93.8446 92.3782 111.716 90.75 111.716 90.75L110.695 87.8214L120.067 88.1566L115.609 81.5229L124 80.5852L119.199 76.1969L122.613 74.576C122.613 74.576 117.158 65.2738 107.99 60.4606C99.1713 55.8342 91.3764 54.1346 81.3388 59.1181Z" fill="#D6CFC1"/>
<path d="M59.2897 115.438C64.0392 115.33 63.539 105.856 63.6526 102.039L53.5288 100.327C53.527 103.735 54.2526 115.554 59.2897 115.438Z" fill="#EDE6D9"/>
<path d="M63.6908 101.274C63.6725 101.492 63.6597 101.75 63.6523 102.039H63.656C63.7037 101.681 63.9602 101.525 63.6908 101.274Z" fill="#EDE6D9"/>
<path d="M88.7797 101.741C88.7614 101.959 88.7485 102.217 88.7412 102.507H88.7449C88.7925 102.148 89.0491 101.992 88.7797 101.741Z" fill="#EDE6D9"/>
<path d="M84.379 115.906C89.1284 115.798 88.6282 106.323 88.7418 102.506L78.6182 100.794C78.6163 104.202 79.3419 116.021 84.379 115.906Z" fill="#EDE6D9"/>
<path d="M39.6642 11.6971C38.988 9.67512 35.906 10.688 35.8547 12.5323C35.0319 13.9298 35.1822 15.8822 36.8332 16.3529C37.0421 14.9939 37.1153 14.71 38.1415 13.9206C38.9294 13.3144 40.1223 13.0726 39.6642 11.6971Z" fill="#ED7454"/>
<path d="M44.3166 8.4572C43.1146 8.27405 41.1027 8.74657 40.7857 10.0231C40.1975 12.3894 43.4352 11.5744 44.4943 10.9572C48.0948 8.86014 46.3303 8.14035 44.3166 8.4572Z" fill="#ED7454"/>
<path d="M39.9712 61.8543L43.515 68.7078L46.0473 61.543L44.149 61.8543L43.2621 64.6584L41.7431 61.6986L39.9712 61.8543Z" fill="#D6CFC1"/>
<path d="M47.9194 61.8551L51.9707 68.7086L55.8663 60.2983L52.5937 61.3881L51.192 64.9705L49.9442 62.0108L47.9194 61.8551Z" fill="#D6CFC1"/>
<path d="M58.8267 60.609L62.255 67.1511L64.4355 59.2061L62.255 59.6749L61.4762 63.1017L60.2284 59.8306L58.8267 60.609Z" fill="#D6CFC1"/>
<path d="M44.334 70.8896L46.826 77.2742L50.2543 70.8896H47.9181L46.9836 72.9134L46.5145 70.7339L44.334 70.8896Z" fill="#D6CFC1"/>
<path d="M54.1519 70.2664L57.4227 77.4294L60.5396 69.1748L58.0475 69.7975L57.2669 73.5356L56.4882 69.7975L54.1519 70.2664Z" fill="#D6CFC1"/>
<path d="M49.6318 80.3893L53.0602 87.0871L54.9311 79.7666H52.9044L52.1257 82.2593L51.3469 79.7666L49.6318 80.3893Z" fill="#D6CFC1"/>
<path d="M78.8866 74.0612C79.7258 74.6565 80.587 75.2187 81.483 75.7224C82.3057 76.1839 83.2017 76.6345 84.1417 76.7865C84.4697 76.8396 84.609 76.3396 84.2792 76.2865C83.374 76.14 82.5385 75.7114 81.7432 75.2737C80.8417 74.7792 79.9823 74.2077 79.1468 73.6125C78.8756 73.4184 78.6154 73.8689 78.8866 74.0612Z" fill="#F2EAD7"/>
<path d="M78.9488 68.6878C80.673 69.1401 82.2104 70.1035 83.9346 70.5577C84.259 70.642 84.3964 70.142 84.0721 70.0577C82.3478 69.6053 80.8105 68.642 79.0862 68.1877C78.7619 68.1035 78.6245 68.6035 78.9488 68.6878Z" fill="#F2EAD7"/>
<path d="M82.3433 63.5065C84.106 63.7409 85.8101 64.3325 87.4683 64.9515C87.7835 65.0688 87.9172 64.5669 87.6057 64.4515C85.8962 63.8142 84.1573 63.23 82.3415 62.9882C82.0117 62.9424 82.0153 63.4625 82.3433 63.5065Z" fill="#F2EAD7"/>
<path d="M90.3774 59.9661C93.0801 60.413 95.9661 60.7079 98.4196 62.0174C98.7146 62.1749 98.9766 61.7262 98.6816 61.5687C96.1823 60.2353 93.2688 59.9222 90.5167 59.4661C90.1869 59.4112 90.0476 59.9112 90.3774 59.9661Z" fill="#F2EAD7"/>
<path d="M93.0784 65.1585C94.7861 65.5834 96.5342 65.9827 98.0037 67.0011C98.2804 67.1934 98.5388 66.7428 98.2657 66.5523C96.7614 65.5083 94.9657 65.0926 93.2177 64.6567C92.8915 64.5761 92.7522 65.0779 93.0784 65.1585Z" fill="#F2EAD7"/>
<path d="M89.7532 70.7649C91.4169 71.1971 92.9323 72.025 94.5319 72.6349C94.8453 72.7539 94.979 72.2521 94.6694 72.1349C93.0697 71.525 91.5544 70.699 89.8906 70.2649C89.5681 70.1806 89.4307 70.6806 89.7532 70.7649Z" fill="#F2EAD7"/>
<path d="M89.1992 76.3816C89.5345 76.3816 89.5345 75.8633 89.1992 75.8633C88.8639 75.8633 88.8639 76.3816 89.1992 76.3816Z" fill="#F2EAD7"/>
<path d="M89.1293 76.3727C90.564 76.8013 91.8485 77.6054 93.2851 78.0339C93.6076 78.1292 93.7432 77.6292 93.4225 77.5339C91.9878 77.1054 90.7033 76.3013 89.2667 75.8728C88.9461 75.7757 88.8086 76.2775 89.1293 76.3727Z" fill="#F2EAD7"/>
<path d="M88.5761 83.6507C91.1469 83.9034 93.2559 85.68 95.7791 86.1342C96.1071 86.1928 96.2463 85.6928 95.9165 85.6342C93.3421 85.1708 91.2055 83.3906 88.5743 83.1324C88.2426 83.0994 88.2463 83.6177 88.5761 83.6507Z" fill="#F2EAD7"/>
<path d="M100.005 85.3123C100.34 85.3123 100.34 84.7939 100.005 84.7939C99.6696 84.7939 99.6696 85.3123 100.005 85.3123Z" fill="#F2EAD7"/>
<path d="M100.005 85.3123C101.661 85.5193 103.32 85.7189 104.991 85.7281C105.326 85.7299 105.326 85.2097 104.991 85.2097C103.32 85.2024 101.661 85.0009 100.005 84.7939C99.6714 84.7518 99.6769 85.272 100.005 85.3123Z" fill="#F2EAD7"/>
<path d="M98.5503 80.9519C98.8855 80.9519 98.8855 80.4336 98.5503 80.4336C98.215 80.4318 98.215 80.9519 98.5503 80.9519Z" fill="#F2EAD7"/>
<path d="M98.5495 80.9511C99.55 80.8448 100.556 81.0884 101.52 81.332C102.588 81.6012 103.638 81.9437 104.714 82.1891C105.04 82.2642 105.179 81.7624 104.851 81.6891C103.775 81.4437 102.724 81.1086 101.657 80.832C100.657 80.5738 99.5885 80.3229 98.5495 80.4328C98.2197 80.4657 98.216 80.9859 98.5495 80.9511Z" fill="#F2EAD7"/>
<path d="M100.419 74.5141C102.339 74.7448 104.177 75.4939 105.897 76.3473C106.196 76.4957 106.46 76.047 106.159 75.8986C104.349 75.0012 102.436 74.2375 100.419 73.9939C100.087 73.9536 100.091 74.4738 100.419 74.5141Z" fill="#F2EAD7"/>
<path d="M102.012 67.0263C103.731 67.6856 105.298 68.6673 106.938 69.4914C107.237 69.6416 107.499 69.1929 107.2 69.0427C105.52 68.1966 103.913 67.2002 102.152 66.5244C101.837 66.4054 101.703 66.9091 102.012 67.0263Z" fill="#F2EAD7"/>
<path d="M103.822 61.602C105.746 62.6679 107.715 63.6514 109.639 64.7173C109.932 64.8803 110.194 64.4316 109.901 64.2686C107.977 63.2027 106.008 62.2192 104.084 61.1533C103.79 60.9902 103.528 61.439 103.822 61.602Z" fill="#F2EAD7"/>
<path d="M112.056 69.1125C112.391 69.1125 112.391 68.5942 112.056 68.5942C111.721 68.5942 111.721 69.1125 112.056 69.1125Z" fill="#F2EAD7"/>
<path d="M111.924 69.0776C113.336 69.7846 114.758 70.4915 116.079 71.3615C116.36 71.5465 116.62 71.0959 116.341 70.9128C115.02 70.0428 113.6 69.334 112.186 68.6289C111.887 68.4805 111.623 68.9274 111.924 69.0776Z" fill="#F2EAD7"/>
<path d="M111.092 73.8542C112.541 74.8816 114.077 75.7571 115.664 76.5538C115.962 76.7039 116.226 76.2552 115.926 76.1051C114.339 75.3084 112.803 74.4329 111.354 73.4055C111.081 73.2113 110.822 73.6619 111.092 73.8542Z" fill="#F2EAD7"/>
<path d="M109.639 81.5394C111.065 82.3544 112.494 83.1694 114.002 83.8233C114.306 83.9552 114.57 83.5083 114.264 83.3746C112.756 82.7207 111.327 81.9039 109.901 81.0907C109.61 80.924 109.348 81.3728 109.639 81.5394Z" fill="#F2EAD7"/>
<path d="M23.6709 75.7241C25.4611 74.8358 27.3246 74.1014 29.2192 73.4658C29.5344 73.3596 29.4006 72.8578 29.0818 72.9658C27.1469 73.6142 25.2394 74.3688 23.4089 75.2772C23.1084 75.4237 23.3723 75.8725 23.6709 75.7241Z" fill="#F2EAD7"/>
<path d="M26.1021 78.243C27.5387 77.8218 28.8653 77.1697 30.1113 76.3474C30.3898 76.1643 30.1297 75.7137 29.8493 75.8987C28.6381 76.6972 27.3573 77.3328 25.9629 77.7412C25.644 77.8364 25.7796 78.3364 26.1021 78.243Z" fill="#F2EAD7"/>
<path d="M27.1414 84.0581C28.2921 83.5965 29.3879 83.0965 30.3719 82.3291C30.6357 82.1239 30.2656 81.7576 30.0054 81.9628C29.0965 82.6716 28.0667 83.1313 27.0039 83.558C26.6961 83.6789 26.8299 84.1826 27.1414 84.0581Z" fill="#F2EAD7"/>
<path d="M33.1685 84.8873C34.3283 84.6364 35.3984 84.0851 36.4923 83.6418C36.7983 83.5173 36.6646 83.0154 36.3549 83.1418C35.261 83.5851 34.1909 84.1363 33.031 84.3873C32.7031 84.4587 32.8405 84.9587 33.1685 84.8873Z" fill="#F2EAD7"/>
<path d="M33.7911 80.1103C35.4513 79.8869 36.9758 79.2422 38.4252 78.4235C38.7166 78.2587 38.4545 77.8099 38.1632 77.9748C36.7504 78.7751 35.2735 79.3924 33.6537 79.6103C33.3221 79.6543 33.4632 80.1543 33.7911 80.1103Z" fill="#F2EAD7"/>
<path d="M33.1676 74.0886C34.65 73.867 36.092 73.4604 37.5304 73.0501C37.8511 72.9585 37.7155 72.4567 37.393 72.5501C35.9546 72.9604 34.5126 73.367 33.0302 73.5886C32.6985 73.6362 32.8396 74.1363 33.1676 74.0886Z" fill="#F2EAD7"/>
<path d="M31.2038 70.2835C31.7278 69.7945 32.5011 69.5381 33.1662 69.311C33.4814 69.2048 33.3458 68.703 33.0288 68.811C32.2739 69.0675 31.4292 69.3623 30.8373 69.9154C30.5918 70.1462 30.9601 70.5125 31.2038 70.2835Z" fill="#F2EAD7"/>
<path d="M27.0738 70.3606C27.4092 70.3606 27.4092 69.8423 27.0738 69.8423C26.7384 69.8423 26.7384 70.3606 27.0738 70.3606Z" fill="#F2EAD7"/>
<path d="M27.2571 70.0761C27.6675 69.6566 28.0248 69.1072 28.5965 68.8965C28.908 68.7812 28.7742 68.2793 28.4591 68.3965C27.7811 68.6456 27.378 69.2116 26.8906 69.7098C26.6542 69.9479 27.0225 70.3142 27.2571 70.0761Z" fill="#F2EAD7"/>
<path d="M34.8925 67.2079C35.8142 66.7701 36.866 66.6309 37.8775 66.6199C38.2128 66.6163 38.2128 66.0979 37.8775 66.1016C36.7707 66.1126 35.6365 66.2829 34.6305 66.761C34.3263 66.9038 34.5902 67.3507 34.8925 67.2079Z" fill="#F2EAD7"/>
<path opacity="0.8" d="M34.4208 0.208758C70.1161 -11.7148 114.155 37.5912 130.63 62.8043C147.106 88.0174 149.555 134.183 111.425 158.329C73.2946 182.475 32.597 177.413 16.8914 144.579C-4.2829 100.343 -8.49672 14.5566 34.4208 0.208758Z" fill="#036095"/>
</g>
<defs>
<clipPath id="clip0">
<rect width="142" height="177" fill="white"/>
</clipPath>
</defs>
</svg>
