<svg width="164" height="167" viewBox="0 0 164 167" fill="none" xmlns="http://www.w3.org/2000/svg">
<path d="M98.7474 155.865L90.4141 161.438L91.1888 162.192L98.3599 158.425L96.6145 164H98.1663L100.297 159.028L104.754 163.397L105.916 162.946L100.878 156.165L98.7474 155.865Z" fill="#EF5C3F"/>
<path d="M69.2896 155.284L67.7401 155.671L58.0508 158.769L58.6318 159.933L66.9653 158.188L63.4765 162.837H65.2197L68.1274 158.769L71.2288 162.837L72.0036 162.45L69.2896 155.284Z" fill="#EF5C3F"/>
<path d="M97.0039 132.749L99.3282 159.092L101.071 159.286V131.781L97.0039 132.749Z" fill="#EF5C3F"/>
<path d="M65.6094 133.136L67.9338 157.737L69.4833 157.93L69.0959 132.555L65.6094 133.136Z" fill="#EF5C3F"/>
<path d="M48.7499 71.4114C46.036 71.7986 39.0608 73.3474 33.2477 75.6729C27.4347 77.9984 20.6509 83.8087 20.6509 83.8087L23.7523 84.7767L16 91.1679L23.3649 92.1359L18.5203 96.7846L25.4978 97.3655L20.8469 102.208C20.8469 102.208 26.8536 104.34 35.9617 103.176C45.0698 102.014 54.1779 97.9463 54.1779 97.9463L48.7499 71.4114Z" fill="#D6CFC1"/>
<path d="M55.1426 121C47.3425 116.294 41.3836 100.079 40.6088 88.0713C39.8341 76.0611 41.5773 59.2109 41.1899 52.6239C40.8025 46.0368 32.2755 30.5418 35.7643 21.6316C39.253 12.7213 53.9804 9.23419 63.0885 15.434C80.0376 26.9682 81.692 44.2944 85.1807 54.3685C85.1807 54.3685 108.823 56.6941 120.257 60.5661C128.326 63.2993 136.536 66.3764 136.536 66.3764L132.854 69.6699L138.861 72.5763C138.861 72.5763 132.854 78.9674 133.629 78.7738C134.403 78.5802 140.219 76.2547 140.023 76.8378C139.829 77.4186 134.985 86.5224 134.985 86.5224C134.985 86.5224 140.41 84.1969 140.023 84.78C139.635 85.3608 128.007 119.647 109.016 123.327C90.0253 127.008 65.4128 127.197 55.1426 121Z" fill="#EDE6D9"/>
<path d="M63.0885 15.433C53.9804 9.23546 39.253 12.7203 35.7643 21.6305C32.2755 30.5408 40.8025 46.0358 41.1899 52.6228C41.2947 54.3857 41.2446 56.8843 41.133 59.8271L45.2597 58.2395L49.1358 61.533L53.593 54.3652L60.3745 59.4011L63.0885 53.5908L68.5141 57.4651L72.1965 51.8484L78.397 55.7227C78.397 55.7227 79.5591 50.106 79.9465 50.6868C80.1653 51.0148 82.4075 51.402 84.3285 51.6798C81.3069 41.4212 78.6134 25.9968 63.0885 15.433Z" fill="#D6CFC1"/>
<path d="M45.9579 37.1846C45.9579 37.1846 46.8124 34.8022 44.4859 32.0895C42.2413 29.4702 39.2312 30.9552 39.2312 30.9552C39.2312 30.9552 33.9263 41.0316 35.0064 42.0702C36.0888 43.1134 45.9579 37.1846 45.9579 37.1846Z" fill="#E8B618"/>
<path d="M56.1133 29.1516C57.0572 29.1516 57.8224 28.3868 57.8224 27.4434C57.8224 26.4999 57.0572 25.7351 56.1133 25.7351C55.1695 25.7351 54.4043 26.4999 54.4043 27.4434C54.4043 28.3868 55.1695 29.1516 56.1133 29.1516Z" fill="#564336"/>
<path d="M37.8632 28.2185C37.8632 29.1615 37.0976 29.9268 36.1543 29.9268C35.2109 29.9268 34.4453 29.1615 34.4453 28.2185C34.4453 27.2756 35.2109 26.5103 36.1543 26.5103C37.0999 26.508 37.8632 27.2733 37.8632 28.2185Z" fill="#564336"/>
<path d="M38.48 18.9201C38.48 18.9201 34.9913 11.7523 37.1242 8.6546C39.2548 5.55468 42.3561 7.49299 42.3561 7.49299C42.3561 7.49299 44.6827 3.42504 48.7502 3.03783C52.82 2.65062 53.9822 5.36336 53.9822 5.36336C53.9822 5.36336 54.757 3.62093 58.052 4.78254C61.3471 5.94416 61.5407 9.04408 61.5407 9.04408L62.1218 14.8544C62.1218 14.8544 56.5025 12.7248 49.3313 13.8864C42.1601 15.0458 38.48 18.9201 38.48 18.9201Z" fill="#EF5C3F"/>
<path d="M94.7682 67.8148C86.0338 72.1515 80.9409 83.9749 93.7656 94.976C110.321 109.177 132.545 107.152 132.545 107.152L131.276 103.51L142.931 103.927L137.387 95.6775L147.822 94.5114L141.851 89.0541L146.097 87.0383C146.097 87.0383 139.313 75.47 127.912 69.4843C116.945 63.7309 107.251 61.6172 94.7682 67.8148Z" fill="#D6CFC1"/>
<path d="M67.3499 137.856C73.2564 137.721 72.6343 125.939 72.7756 121.192L60.1856 119.062C60.1833 123.301 61.0856 137.999 67.3499 137.856Z" fill="#EDE6D9"/>
<path d="M72.8232 120.24C72.8004 120.512 72.7845 120.833 72.7754 121.193H72.78C72.8392 120.746 73.1582 120.553 72.8232 120.24Z" fill="#EDE6D9"/>
<path d="M104.022 120.821C104 121.092 103.984 121.413 103.975 121.773H103.979C104.038 121.327 104.357 121.133 104.022 120.821Z" fill="#EDE6D9"/>
<path d="M98.549 138.436C104.455 138.302 103.833 126.519 103.975 121.772L91.3848 119.643C91.3825 123.882 92.2848 138.579 98.549 138.436Z" fill="#EDE6D9"/>
<path d="M42.9414 8.84123C42.1006 6.32665 38.2677 7.58623 38.2039 9.87988C37.1807 11.6178 37.3676 14.0458 39.4208 14.6312C39.6805 12.9411 39.7717 12.5881 41.0478 11.6064C42.0277 10.8524 43.5111 10.5518 42.9414 8.84123Z" fill="#ED7454"/>
<path d="M48.7272 4.81202C47.2324 4.58425 44.7303 5.17187 44.3361 6.75942C43.6047 9.70218 47.6311 8.68863 48.9482 7.92106C53.4259 5.31311 51.2315 4.41798 48.7272 4.81202Z" fill="#ED7454"/>
<path d="M43.3242 71.2173L47.7313 79.7403L50.8806 70.8301L48.5198 71.2173L47.4168 74.7044L45.5278 71.0237L43.3242 71.2173Z" fill="#D6CFC1"/>
<path d="M53.207 71.2178L58.2453 79.7408L63.0898 69.2817L59.0201 70.637L57.2768 75.0921L55.725 71.4114L53.207 71.2178Z" fill="#D6CFC1"/>
<path d="M66.7715 69.6683L71.035 77.8041L73.7466 67.9236L71.035 68.5067L70.0665 72.7682L68.5147 68.7003L66.7715 69.6683Z" fill="#D6CFC1"/>
<path d="M48.75 82.4534L51.8491 90.3933L56.1126 82.4534H53.2072L52.0451 84.9702L51.4617 82.2598L48.75 82.4534Z" fill="#D6CFC1"/>
<path d="M60.959 81.679L65.0266 90.587L68.9028 80.3215L65.8037 81.0959L64.8329 85.7446L63.8644 81.0959L60.959 81.679Z" fill="#D6CFC1"/>
<path d="M55.3379 94.2681L59.6014 102.597L61.9281 93.4937H59.4077L58.4393 96.5936L57.4708 93.4937L55.3379 94.2681Z" fill="#D6CFC1"/>
<path d="M91.7207 86.3991C92.7644 87.1394 93.8353 87.8387 94.9496 88.465C95.9727 89.039 97.087 89.5993 98.256 89.7883C98.6639 89.8544 98.8371 89.2326 98.4269 89.1665C97.3012 88.9843 96.2622 88.4513 95.2732 87.907C94.1521 87.292 93.0834 86.5814 92.0443 85.8411C91.707 85.5997 91.3835 86.16 91.7207 86.3991Z" fill="#F2EAD7"/>
<path d="M91.7967 79.7162C93.9409 80.2788 95.8528 81.4768 97.9971 82.0417C98.4004 82.1465 98.5713 81.5247 98.168 81.4199C96.0237 80.8573 94.1118 79.6592 91.9676 79.0944C91.5642 78.9896 91.3933 79.6114 91.7967 79.7162Z" fill="#F2EAD7"/>
<path d="M96.0188 73.2729C98.2109 73.5644 100.33 74.3001 102.392 75.0699C102.784 75.2157 102.951 74.5916 102.563 74.4481C100.437 73.6555 98.2748 72.929 96.0166 72.6283C95.6064 72.5714 95.6109 73.2182 96.0188 73.2729Z" fill="#F2EAD7"/>
<path d="M106.01 68.8702C109.371 69.4259 112.96 69.7926 116.011 71.4212C116.378 71.617 116.704 71.059 116.337 70.8632C113.229 69.205 109.606 68.8155 106.183 68.2484C105.773 68.1801 105.6 68.8019 106.01 68.8702Z" fill="#F2EAD7"/>
<path d="M109.37 75.3286C111.494 75.857 113.667 76.3535 115.495 77.62C115.839 77.8591 116.16 77.2988 115.821 77.0619C113.95 75.7636 111.717 75.2466 109.543 74.7045C109.137 74.6042 108.964 75.2283 109.37 75.3286Z" fill="#F2EAD7"/>
<path d="M105.233 82.2999C107.302 82.8374 109.186 83.867 111.175 84.6254C111.565 84.7735 111.731 84.1494 111.346 84.0036C109.357 83.2451 107.473 82.2179 105.403 81.6781C105.002 81.5733 104.831 82.1951 105.233 82.2999Z" fill="#F2EAD7"/>
<path d="M104.545 89.2845C104.962 89.2845 104.962 88.6399 104.545 88.6399C104.128 88.6399 104.128 89.2845 104.545 89.2845Z" fill="#F2EAD7"/>
<path d="M104.457 89.2744C106.242 89.8074 107.839 90.8073 109.626 91.3403C110.027 91.4587 110.195 90.8369 109.797 90.7185C108.012 90.1855 106.415 89.1856 104.628 88.6526C104.23 88.5319 104.059 89.156 104.457 89.2744Z" fill="#F2EAD7"/>
<path d="M103.769 98.3234C106.966 98.6378 109.588 100.847 112.726 101.412C113.134 101.485 113.307 100.863 112.897 100.79C109.696 100.214 107.039 98 103.766 97.6789C103.354 97.6379 103.358 98.2824 103.769 98.3234Z" fill="#F2EAD7"/>
<path d="M117.983 100.391C118.4 100.391 118.4 99.7468 117.983 99.7468C117.566 99.7468 117.566 100.391 117.983 100.391Z" fill="#F2EAD7"/>
<path d="M117.982 100.391C120.042 100.648 122.105 100.896 124.183 100.908C124.6 100.91 124.6 100.263 124.183 100.263C122.105 100.254 120.042 100.004 117.982 99.7462C117.568 99.6938 117.574 100.341 117.982 100.391Z" fill="#F2EAD7"/>
<path d="M116.174 94.9681C116.591 94.9681 116.591 94.3235 116.174 94.3235C115.757 94.3212 115.757 94.9681 116.174 94.9681Z" fill="#F2EAD7"/>
<path d="M116.173 94.9671C117.417 94.835 118.668 95.1379 119.866 95.4408C121.195 95.7757 122.501 96.2016 123.838 96.5068C124.244 96.6001 124.417 95.9761 124.009 95.885C122.672 95.5798 121.364 95.163 120.037 94.8191C118.793 94.4979 117.465 94.1859 116.173 94.3225C115.762 94.3635 115.758 95.0104 116.173 94.9671Z" fill="#F2EAD7"/>
<path d="M118.497 86.9624C120.885 87.2494 123.171 88.1809 125.31 89.2422C125.682 89.4267 126.01 88.8687 125.636 88.6842C123.385 87.5682 121.006 86.6184 118.497 86.3155C118.085 86.2654 118.089 86.9123 118.497 86.9624Z" fill="#F2EAD7"/>
<path d="M120.48 77.65C122.617 78.47 124.566 79.6908 126.605 80.7157C126.977 80.9025 127.303 80.3444 126.931 80.1577C124.842 79.1054 122.843 77.8663 120.653 77.0259C120.261 76.8778 120.095 77.5042 120.48 77.65Z" fill="#F2EAD7"/>
<path d="M122.73 70.9047C125.122 72.2303 127.572 73.4533 129.965 74.7789C130.329 74.9816 130.655 74.4236 130.291 74.2209C127.898 72.8953 125.448 71.6722 123.056 70.3466C122.691 70.1439 122.365 70.7019 122.73 70.9047Z" fill="#F2EAD7"/>
<path d="M132.971 80.2456C133.388 80.2456 133.388 79.6011 132.971 79.6011C132.554 79.6011 132.554 80.2456 132.971 80.2456Z" fill="#F2EAD7"/>
<path d="M132.805 80.2017C134.562 81.0809 136.331 81.9601 137.974 83.042C138.322 83.272 138.646 82.7117 138.299 82.484C136.656 81.4021 134.89 80.5206 133.131 79.6437C132.76 79.4592 132.432 80.0149 132.805 80.2017Z" fill="#F2EAD7"/>
<path d="M131.77 86.1408C133.573 87.4186 135.483 88.5073 137.456 89.4981C137.827 89.6848 138.156 89.1268 137.782 88.9401C135.808 87.9493 133.899 86.8606 132.096 85.5828C131.757 85.3414 131.435 85.9017 131.77 86.1408Z" fill="#F2EAD7"/>
<path d="M129.965 95.6994C131.737 96.7129 133.515 97.7265 135.39 98.5396C135.768 98.7036 136.097 98.1478 135.716 97.9816C133.841 97.1684 132.063 96.1526 130.29 95.1413C129.928 94.9341 129.602 95.4921 129.965 95.6994Z" fill="#F2EAD7"/>
<path d="M23.0532 88.4671C25.2795 87.3624 27.5969 86.4491 29.9531 85.6587C30.3451 85.5266 30.1787 84.9025 29.7822 85.0369C27.3759 85.8432 25.0038 86.7816 22.7273 87.9114C22.3536 88.0936 22.6818 88.6516 23.0532 88.4671Z" fill="#F2EAD7"/>
<path d="M26.0787 91.5997C27.8653 91.0758 29.5151 90.2649 31.0646 89.2423C31.411 89.0145 31.0874 88.4542 30.7388 88.6842C29.2325 89.6773 27.6397 90.4677 25.9055 90.9756C25.509 91.094 25.6777 91.7158 26.0787 91.5997Z" fill="#F2EAD7"/>
<path d="M27.3702 98.8305C28.8012 98.2565 30.1639 97.6347 31.3876 96.6803C31.7158 96.4252 31.2555 95.9697 30.9319 96.2248C29.8016 97.1063 28.5209 97.678 27.1992 98.2087C26.8164 98.359 26.9828 98.9854 27.3702 98.8305Z" fill="#F2EAD7"/>
<path d="M34.8634 99.8619C36.3058 99.5498 37.6366 98.8642 38.997 98.313C39.3776 98.1581 39.2112 97.534 38.8261 97.6912C37.4657 98.2424 36.1349 98.928 34.6925 99.24C34.2846 99.3289 34.4555 99.9507 34.8634 99.8619Z" fill="#F2EAD7"/>
<path d="M35.6388 93.9213C37.7034 93.6434 39.5993 92.8416 41.4018 91.8235C41.7641 91.6185 41.4383 91.0605 41.0759 91.2655C39.319 92.2608 37.4823 93.0284 35.4679 93.2994C35.0555 93.3541 35.2309 93.9759 35.6388 93.9213Z" fill="#F2EAD7"/>
<path d="M34.8634 86.4335C36.7069 86.1579 38.5003 85.6522 40.2891 85.142C40.6878 85.0281 40.5192 84.404 40.1182 84.5202C38.3294 85.0304 36.536 85.5361 34.6925 85.8117C34.2801 85.8709 34.4555 86.4927 34.8634 86.4335Z" fill="#F2EAD7"/>
<path d="M32.4217 81.7011C33.0734 81.093 34.035 80.7741 34.8622 80.4917C35.2541 80.3596 35.0855 79.7355 34.6913 79.8699C33.7524 80.1888 32.702 80.5555 31.966 81.2433C31.6606 81.5303 32.1186 81.9858 32.4217 81.7011Z" fill="#F2EAD7"/>
<path d="M27.2835 81.7959C27.7006 81.7959 27.7006 81.1514 27.2835 81.1514C26.8664 81.1514 26.8664 81.7959 27.2835 81.7959Z" fill="#F2EAD7"/>
<path d="M27.5133 81.4421C28.0237 80.9205 28.4681 80.2372 29.1791 79.9753C29.5664 79.8318 29.4001 79.2077 29.0082 79.3535C28.165 79.6632 27.6637 80.367 27.0576 80.9866C26.7636 81.2827 27.2216 81.7383 27.5133 81.4421Z" fill="#F2EAD7"/>
<path d="M37.0073 77.8773C38.1535 77.3329 39.4615 77.1598 40.7194 77.1461C41.1364 77.1415 41.1364 76.4969 40.7194 76.5015C39.343 76.5152 37.9325 76.727 36.6814 77.3215C36.3032 77.4992 36.6313 78.0549 37.0073 77.8773Z" fill="#F2EAD7"/>
</svg>
